<svg xmlns="http://www.w3.org/2000/svg" version="1.1" xmlns:xlink="http://www.w3.org/1999/xlink" xmlns:svgjs="http://svgjs.dev/svgjs" viewBox="0 0 800 800"><g fill="none" stroke-width="4" stroke="hsl(30, 100%, 40%)" stroke-linecap="round" stroke-dasharray="43.5 0"><line x1="48.5" y1="400" x2="751.5" y2="400" transform="rotate(0, 400, 400)" opacity="0.70"></line><line x1="140.5" y1="400" x2="659.5" y2="400" transform="rotate(3, 400, 400)" opacity="0.65"></line><line x1="133.5" y1="400" x2="666.5" y2="400" transform="rotate(6, 400, 400)" opacity="0.71"></line><line x1="122.5" y1="400" x2="677.5" y2="400" transform="rotate(9, 400, 400)" opacity="0.16"></line><line x1="231.5" y1="400" x2="568.5" y2="400" transform="rotate(12, 400, 400)" opacity="0.47"></line><line x1="201" y1="400" x2="599" y2="400" transform="rotate(15, 400, 400)" opacity="0.14"></line><line x1="314" y1="400" x2="486" y2="400" transform="rotate(18, 400, 400)" opacity="0.78"></line><line x1="298" y1="400" x2="502" y2="400" transform="rotate(21, 400, 400)" opacity="0.79"></line><line x1="75.5" y1="400" x2="724.5" y2="400" transform="rotate(24, 400, 400)" opacity="0.88"></line><line x1="38" y1="400" x2="762" y2="400" transform="rotate(27, 400, 400)" opacity="0.21"></line><line x1="-54" y1="400" x2="854" y2="400" transform="rotate(30, 400, 400)" opacity="0.25"></line><line x1="163" y1="400" x2="637" y2="400" transform="rotate(33, 400, 400)" opacity="0.33"></line><line x1="261.5" y1="400" x2="538.5" y2="400" transform="rotate(36, 400, 400)" opacity="0.18"></line><line x1="318" y1="400" x2="482" y2="400" transform="rotate(39, 400, 400)" opacity="0.60"></line><line x1="125.5" y1="400" x2="674.5" y2="400" transform="rotate(42, 400, 400)" opacity="0.41"></line><line x1="305.5" y1="400" x2="494.5" y2="400" transform="rotate(45, 400, 400)" opacity="0.09"></line><line x1="-46.5" y1="400" x2="846.5" y2="400" transform="rotate(48, 400, 400)" opacity="0.56"></line><line x1="326" y1="400" x2="474" y2="400" transform="rotate(51, 400, 400)" opacity="0.10"></line><line x1="179" y1="400" x2="621" y2="400" transform="rotate(54, 400, 400)" opacity="0.40"></line><line x1="67.5" y1="400" x2="732.5" y2="400" transform="rotate(57, 400, 400)" opacity="0.71"></line><line x1="119" y1="400" x2="681" y2="400" transform="rotate(60, 400, 400)" opacity="0.21"></line><line x1="239.5" y1="400" x2="560.5" y2="400" transform="rotate(63, 400, 400)" opacity="0.63"></line><line x1="49" y1="400" x2="751" y2="400" transform="rotate(66, 400, 400)" opacity="0.11"></line><line x1="112.5" y1="400" x2="687.5" y2="400" transform="rotate(69, 400, 400)" opacity="0.25"></line><line x1="178.5" y1="400" x2="621.5" y2="400" transform="rotate(72, 400, 400)" opacity="0.36"></line><line x1="73" y1="400" x2="727" y2="400" transform="rotate(75, 400, 400)" opacity="0.33"></line><line x1="217" y1="400" x2="583" y2="400" transform="rotate(78, 400, 400)" opacity="0.41"></line><line x1="82.5" y1="400" x2="717.5" y2="400" transform="rotate(81, 400, 400)" opacity="0.45"></line><line x1="-54.5" y1="400" x2="854.5" y2="400" transform="rotate(84, 400, 400)" opacity="0.91"></line><line x1="272.5" y1="400" x2="527.5" y2="400" transform="rotate(87, 400, 400)" opacity="0.84"></line><line x1="54.5" y1="400" x2="745.5" y2="400" transform="rotate(90, 400, 400)" opacity="0.29"></line><line x1="80" y1="400" x2="720" y2="400" transform="rotate(93, 400, 400)" opacity="0.13"></line><line x1="108.5" y1="400" x2="691.5" y2="400" transform="rotate(96, 400, 400)" opacity="0.65"></line><line x1="280" y1="400" x2="520" y2="400" transform="rotate(99, 400, 400)" opacity="0.64"></line><line x1="236.5" y1="400" x2="563.5" y2="400" transform="rotate(102, 400, 400)" opacity="0.79"></line><line x1="255.5" y1="400" x2="544.5" y2="400" transform="rotate(105, 400, 400)" opacity="0.45"></line><line x1="297.5" y1="400" x2="502.5" y2="400" transform="rotate(108, 400, 400)" opacity="0.98"></line><line x1="-16.5" y1="400" x2="816.5" y2="400" transform="rotate(111, 400, 400)" opacity="0.53"></line><line x1="44.5" y1="400" x2="755.5" y2="400" transform="rotate(114, 400, 400)" opacity="0.94"></line><line x1="0" y1="400" x2="800" y2="400" transform="rotate(117, 400, 400)" opacity="0.97"></line><line x1="34.5" y1="400" x2="765.5" y2="400" transform="rotate(120, 400, 400)" opacity="0.68"></line><line x1="141" y1="400" x2="659" y2="400" transform="rotate(123, 400, 400)" opacity="0.50"></line><line x1="126" y1="400" x2="674" y2="400" transform="rotate(126, 400, 400)" opacity="0.91"></line><line x1="6.5" y1="400" x2="793.5" y2="400" transform="rotate(129, 400, 400)" opacity="0.51"></line><line x1="115.5" y1="400" x2="684.5" y2="400" transform="rotate(132, 400, 400)" opacity="0.50"></line><line x1="139.5" y1="400" x2="660.5" y2="400" transform="rotate(135, 400, 400)" opacity="0.45"></line><line x1="102.5" y1="400" x2="697.5" y2="400" transform="rotate(138, 400, 400)" opacity="0.42"></line><line x1="244.5" y1="400" x2="555.5" y2="400" transform="rotate(141, 400, 400)" opacity="0.09"></line><line x1="265" y1="400" x2="535" y2="400" transform="rotate(144, 400, 400)" opacity="0.17"></line><line x1="46.5" y1="400" x2="753.5" y2="400" transform="rotate(147, 400, 400)" opacity="0.72"></line><line x1="303" y1="400" x2="497" y2="400" transform="rotate(150, 400, 400)" opacity="0.86"></line><line x1="296" y1="400" x2="504" y2="400" transform="rotate(153, 400, 400)" opacity="0.61"></line><line x1="-39" y1="400" x2="839" y2="400" transform="rotate(156, 400, 400)" opacity="0.75"></line><line x1="-24.5" y1="400" x2="824.5" y2="400" transform="rotate(159, 400, 400)" opacity="0.48"></line><line x1="-36.5" y1="400" x2="836.5" y2="400" transform="rotate(162, 400, 400)" opacity="0.45"></line><line x1="116" y1="400" x2="684" y2="400" transform="rotate(165, 400, 400)" opacity="0.26"></line><line x1="203.5" y1="400" x2="596.5" y2="400" transform="rotate(168, 400, 400)" opacity="0.98"></line><line x1="193" y1="400" x2="607" y2="400" transform="rotate(171, 400, 400)" opacity="0.67"></line><line x1="237.5" y1="400" x2="562.5" y2="400" transform="rotate(174, 400, 400)" opacity="0.15"></line><line x1="295" y1="400" x2="505" y2="400" transform="rotate(177, 400, 400)" opacity="0.26"></line><line x1="160" y1="400" x2="640" y2="400" transform="rotate(180, 400, 400)" opacity="0.67"></line><line x1="89.5" y1="400" x2="710.5" y2="400" transform="rotate(183, 400, 400)" opacity="0.35"></line><line x1="194" y1="400" x2="606" y2="400" transform="rotate(186, 400, 400)" opacity="0.35"></line><line x1="278" y1="400" x2="522" y2="400" transform="rotate(189, 400, 400)" opacity="0.54"></line><line x1="272" y1="400" x2="528" y2="400" transform="rotate(192, 400, 400)" opacity="0.63"></line><line x1="20" y1="400" x2="780" y2="400" transform="rotate(195, 400, 400)" opacity="0.65"></line><line x1="26" y1="400" x2="774" y2="400" transform="rotate(198, 400, 400)" opacity="0.85"></line><line x1="38.5" y1="400" x2="761.5" y2="400" transform="rotate(201, 400, 400)" opacity="0.42"></line><line x1="96.5" y1="400" x2="703.5" y2="400" transform="rotate(204, 400, 400)" opacity="0.65"></line><line x1="306" y1="400" x2="494" y2="400" transform="rotate(207, 400, 400)" opacity="0.84"></line><line x1="222" y1="400" x2="578" y2="400" transform="rotate(210, 400, 400)" opacity="0.92"></line><line x1="325.5" y1="400" x2="474.5" y2="400" transform="rotate(213, 400, 400)" opacity="0.11"></line><line x1="13" y1="400" x2="787" y2="400" transform="rotate(216, 400, 400)" opacity="0.89"></line><line x1="204.5" y1="400" x2="595.5" y2="400" transform="rotate(219, 400, 400)" opacity="0.97"></line><line x1="-57.5" y1="400" x2="857.5" y2="400" transform="rotate(222, 400, 400)" opacity="0.44"></line><line x1="261" y1="400" x2="539" y2="400" transform="rotate(225, 400, 400)" opacity="0.39"></line><line x1="205" y1="400" x2="595" y2="400" transform="rotate(228, 400, 400)" opacity="0.88"></line><line x1="11" y1="400" x2="789" y2="400" transform="rotate(231, 400, 400)" opacity="0.59"></line><line x1="144.5" y1="400" x2="655.5" y2="400" transform="rotate(234, 400, 400)" opacity="0.17"></line><line x1="135" y1="400" x2="665" y2="400" transform="rotate(237, 400, 400)" opacity="0.19"></line><line x1="78.5" y1="400" x2="721.5" y2="400" transform="rotate(240, 400, 400)" opacity="0.82"></line><line x1="243.5" y1="400" x2="556.5" y2="400" transform="rotate(243, 400, 400)" opacity="0.99"></line><line x1="-10.5" y1="400" x2="810.5" y2="400" transform="rotate(246, 400, 400)" opacity="0.36"></line><line x1="-17.5" y1="400" x2="817.5" y2="400" transform="rotate(249, 400, 400)" opacity="0.90"></line><line x1="242.5" y1="400" x2="557.5" y2="400" transform="rotate(252, 400, 400)" opacity="0.37"></line><line x1="18.5" y1="400" x2="781.5" y2="400" transform="rotate(255, 400, 400)" opacity="0.63"></line><line x1="269.5" y1="400" x2="530.5" y2="400" transform="rotate(258, 400, 400)" opacity="0.43"></line><line x1="218" y1="400" x2="582" y2="400" transform="rotate(261, 400, 400)" opacity="0.92"></line><line x1="214.5" y1="400" x2="585.5" y2="400" transform="rotate(264, 400, 400)" opacity="0.82"></line><line x1="220.5" y1="400" x2="579.5" y2="400" transform="rotate(267, 400, 400)" opacity="0.13"></line><line x1="-28" y1="400" x2="828" y2="400" transform="rotate(270, 400, 400)" opacity="0.72"></line><line x1="178" y1="400" x2="622" y2="400" transform="rotate(273, 400, 400)" opacity="0.79"></line><line x1="247.5" y1="400" x2="552.5" y2="400" transform="rotate(276, 400, 400)" opacity="0.97"></line><line x1="259" y1="400" x2="541" y2="400" transform="rotate(279, 400, 400)" opacity="0.83"></line><line x1="33.5" y1="400" x2="766.5" y2="400" transform="rotate(282, 400, 400)" opacity="0.38"></line><line x1="7.5" y1="400" x2="792.5" y2="400" transform="rotate(285, 400, 400)" opacity="0.84"></line><line x1="99" y1="400" x2="701" y2="400" transform="rotate(288, 400, 400)" opacity="0.27"></line><line x1="184.5" y1="400" x2="615.5" y2="400" transform="rotate(291, 400, 400)" opacity="0.71"></line><line x1="257" y1="400" x2="543" y2="400" transform="rotate(294, 400, 400)" opacity="0.32"></line><line x1="-41" y1="400" x2="841" y2="400" transform="rotate(297, 400, 400)" opacity="0.44"></line><line x1="-44" y1="400" x2="844" y2="400" transform="rotate(300, 400, 400)" opacity="0.58"></line><line x1="73.5" y1="400" x2="726.5" y2="400" transform="rotate(303, 400, 400)" opacity="0.69"></line><line x1="4.5" y1="400" x2="795.5" y2="400" transform="rotate(306, 400, 400)" opacity="0.20"></line><line x1="308.5" y1="400" x2="491.5" y2="400" transform="rotate(309, 400, 400)" opacity="0.51"></line><line x1="141.5" y1="400" x2="658.5" y2="400" transform="rotate(312, 400, 400)" opacity="0.75"></line><line x1="217.5" y1="400" x2="582.5" y2="400" transform="rotate(315, 400, 400)" opacity="0.50"></line><line x1="286" y1="400" x2="514" y2="400" transform="rotate(318, 400, 400)" opacity="0.84"></line><line x1="-39" y1="400" x2="839" y2="400" transform="rotate(321, 400, 400)" opacity="0.37"></line></g></svg>